<mxfile host="Electron" agent="Mozilla/5.0 (X11; Linux x86_64) AppleWebKit/537.36 (KHTML, like Gecko) draw.io/26.0.4 Chrome/128.0.6613.186 Electron/32.2.5 Safari/537.36" version="26.0.4">
  <diagram name="Page-1" id="gDoYgcQ9Nu7eMfL_YuPT">
    <mxGraphModel dx="1207" dy="1198" grid="1" gridSize="10" guides="1" tooltips="1" connect="1" arrows="1" fold="1" page="1" pageScale="1" pageWidth="850" pageHeight="1100" math="0" shadow="0">
      <root>
        <mxCell id="0" />
        <mxCell id="1" parent="0" />
        <mxCell id="VpSIu1IdcWAd6uE_X6uR-33" value="" style="rounded=0;whiteSpace=wrap;html=1;fillColor=none;strokeColor=#8C4FFF;" vertex="1" parent="1">
          <mxGeometry x="256" y="710" width="426" height="450" as="geometry" />
        </mxCell>
        <mxCell id="VpSIu1IdcWAd6uE_X6uR-48" style="edgeStyle=orthogonalEdgeStyle;rounded=0;orthogonalLoop=1;jettySize=auto;html=1;endArrow=none;endFill=0;" edge="1" parent="1" source="VpSIu1IdcWAd6uE_X6uR-18" target="VpSIu1IdcWAd6uE_X6uR-19">
          <mxGeometry relative="1" as="geometry" />
        </mxCell>
        <mxCell id="VpSIu1IdcWAd6uE_X6uR-50" style="edgeStyle=orthogonalEdgeStyle;rounded=0;orthogonalLoop=1;jettySize=auto;html=1;endArrow=none;endFill=0;" edge="1" parent="1" source="VpSIu1IdcWAd6uE_X6uR-18" target="VpSIu1IdcWAd6uE_X6uR-29">
          <mxGeometry relative="1" as="geometry">
            <Array as="points">
              <mxPoint x="79" y="860" />
              <mxPoint x="205" y="860" />
            </Array>
          </mxGeometry>
        </mxCell>
        <mxCell id="VpSIu1IdcWAd6uE_X6uR-53" style="edgeStyle=orthogonalEdgeStyle;rounded=0;orthogonalLoop=1;jettySize=auto;html=1;endArrow=none;endFill=0;" edge="1" parent="1" source="VpSIu1IdcWAd6uE_X6uR-18" target="VpSIu1IdcWAd6uE_X6uR-30">
          <mxGeometry relative="1" as="geometry" />
        </mxCell>
        <mxCell id="VpSIu1IdcWAd6uE_X6uR-18" value="Customer Gateway" style="sketch=0;outlineConnect=0;fontColor=#232F3E;gradientColor=none;fillColor=#8C4FFF;strokeColor=none;dashed=0;verticalLabelPosition=top;verticalAlign=bottom;align=center;html=1;fontSize=12;fontStyle=0;aspect=fixed;pointerEvents=1;shape=mxgraph.aws4.customer_gateway;labelPosition=center;" vertex="1" parent="1">
          <mxGeometry x="20" y="750" width="78" height="78" as="geometry" />
        </mxCell>
        <mxCell id="VpSIu1IdcWAd6uE_X6uR-49" style="edgeStyle=orthogonalEdgeStyle;rounded=0;orthogonalLoop=1;jettySize=auto;html=1;endArrow=none;endFill=0;" edge="1" parent="1" source="VpSIu1IdcWAd6uE_X6uR-19" target="VpSIu1IdcWAd6uE_X6uR-20">
          <mxGeometry relative="1" as="geometry" />
        </mxCell>
        <mxCell id="VpSIu1IdcWAd6uE_X6uR-19" value="VPN Connection" style="sketch=0;outlineConnect=0;fontColor=#232F3E;gradientColor=none;fillColor=#8C4FFF;strokeColor=none;dashed=0;verticalLabelPosition=top;verticalAlign=bottom;align=center;html=1;fontSize=12;fontStyle=0;aspect=fixed;pointerEvents=1;shape=mxgraph.aws4.vpn_connection;labelPosition=center;spacingRight=0;" vertex="1" parent="1">
          <mxGeometry x="160" y="750" width="70" height="78" as="geometry" />
        </mxCell>
        <mxCell id="VpSIu1IdcWAd6uE_X6uR-36" style="edgeStyle=orthogonalEdgeStyle;rounded=0;orthogonalLoop=1;jettySize=auto;html=1;endArrow=none;endFill=0;" edge="1" parent="1" source="VpSIu1IdcWAd6uE_X6uR-20" target="VpSIu1IdcWAd6uE_X6uR-21">
          <mxGeometry relative="1" as="geometry" />
        </mxCell>
        <mxCell id="VpSIu1IdcWAd6uE_X6uR-46" style="edgeStyle=orthogonalEdgeStyle;rounded=0;orthogonalLoop=1;jettySize=auto;html=1;endArrow=none;endFill=0;" edge="1" parent="1" source="VpSIu1IdcWAd6uE_X6uR-20" target="VpSIu1IdcWAd6uE_X6uR-23">
          <mxGeometry relative="1" as="geometry" />
        </mxCell>
        <mxCell id="VpSIu1IdcWAd6uE_X6uR-47" style="edgeStyle=orthogonalEdgeStyle;rounded=0;orthogonalLoop=1;jettySize=auto;html=1;exitX=0.75;exitY=1;exitDx=0;exitDy=0;exitPerimeter=0;endArrow=none;endFill=0;" edge="1" parent="1" source="VpSIu1IdcWAd6uE_X6uR-20" target="VpSIu1IdcWAd6uE_X6uR-24">
          <mxGeometry relative="1" as="geometry" />
        </mxCell>
        <mxCell id="VpSIu1IdcWAd6uE_X6uR-20" value="Amazon VPC" style="sketch=0;points=[[0,0,0],[0.25,0,0],[0.5,0,0],[0.75,0,0],[1,0,0],[0,1,0],[0.25,1,0],[0.5,1,0],[0.75,1,0],[1,1,0],[0,0.25,0],[0,0.5,0],[0,0.75,0],[1,0.25,0],[1,0.5,0],[1,0.75,0]];outlineConnect=0;fontColor=#232F3E;fillColor=#8C4FFF;strokeColor=#ffffff;dashed=0;verticalLabelPosition=top;verticalAlign=bottom;align=center;html=1;fontSize=12;fontStyle=0;aspect=fixed;shape=mxgraph.aws4.resourceIcon;resIcon=mxgraph.aws4.vpc;labelPosition=center;" vertex="1" parent="1">
          <mxGeometry x="310" y="750" width="78" height="78" as="geometry" />
        </mxCell>
        <mxCell id="VpSIu1IdcWAd6uE_X6uR-37" style="edgeStyle=orthogonalEdgeStyle;rounded=0;orthogonalLoop=1;jettySize=auto;html=1;endArrow=none;endFill=0;" edge="1" parent="1" source="VpSIu1IdcWAd6uE_X6uR-21" target="VpSIu1IdcWAd6uE_X6uR-22">
          <mxGeometry relative="1" as="geometry" />
        </mxCell>
        <mxCell id="VpSIu1IdcWAd6uE_X6uR-21" value="VPC Peering" style="sketch=0;outlineConnect=0;fontColor=#232F3E;gradientColor=none;fillColor=#8C4FFF;strokeColor=none;dashed=0;verticalLabelPosition=top;verticalAlign=bottom;align=center;html=1;fontSize=12;fontStyle=0;aspect=fixed;pointerEvents=1;shape=mxgraph.aws4.peering;labelPosition=center;" vertex="1" parent="1">
          <mxGeometry x="430" y="750" width="78" height="78" as="geometry" />
        </mxCell>
        <mxCell id="VpSIu1IdcWAd6uE_X6uR-38" style="edgeStyle=orthogonalEdgeStyle;rounded=0;orthogonalLoop=1;jettySize=auto;html=1;endArrow=none;endFill=0;" edge="1" parent="1" source="VpSIu1IdcWAd6uE_X6uR-22" target="VpSIu1IdcWAd6uE_X6uR-25">
          <mxGeometry relative="1" as="geometry" />
        </mxCell>
        <mxCell id="VpSIu1IdcWAd6uE_X6uR-22" value="Amazon VPC" style="sketch=0;points=[[0,0,0],[0.25,0,0],[0.5,0,0],[0.75,0,0],[1,0,0],[0,1,0],[0.25,1,0],[0.5,1,0],[0.75,1,0],[1,1,0],[0,0.25,0],[0,0.5,0],[0,0.75,0],[1,0.25,0],[1,0.5,0],[1,0.75,0]];outlineConnect=0;fontColor=#232F3E;fillColor=#8C4FFF;strokeColor=#ffffff;dashed=0;verticalLabelPosition=top;verticalAlign=bottom;align=center;html=1;fontSize=12;fontStyle=0;aspect=fixed;shape=mxgraph.aws4.resourceIcon;resIcon=mxgraph.aws4.vpc;labelPosition=center;" vertex="1" parent="1">
          <mxGeometry x="550" y="750" width="78" height="78" as="geometry" />
        </mxCell>
        <mxCell id="VpSIu1IdcWAd6uE_X6uR-45" style="edgeStyle=orthogonalEdgeStyle;rounded=0;orthogonalLoop=1;jettySize=auto;html=1;endArrow=none;endFill=0;" edge="1" parent="1" source="VpSIu1IdcWAd6uE_X6uR-23" target="VpSIu1IdcWAd6uE_X6uR-26">
          <mxGeometry relative="1" as="geometry" />
        </mxCell>
        <mxCell id="VpSIu1IdcWAd6uE_X6uR-23" value="VPC Peering" style="sketch=0;outlineConnect=0;fontColor=#232F3E;gradientColor=none;fillColor=#8C4FFF;strokeColor=none;dashed=0;verticalLabelPosition=bottom;verticalAlign=top;align=center;html=1;fontSize=12;fontStyle=0;aspect=fixed;pointerEvents=1;shape=mxgraph.aws4.peering;" vertex="1" parent="1">
          <mxGeometry x="310" y="890" width="78" height="78" as="geometry" />
        </mxCell>
        <mxCell id="VpSIu1IdcWAd6uE_X6uR-24" value="VPC Peering" style="sketch=0;outlineConnect=0;fontColor=#232F3E;gradientColor=none;fillColor=#8C4FFF;strokeColor=none;dashed=0;verticalLabelPosition=bottom;verticalAlign=top;align=center;html=1;fontSize=12;fontStyle=0;aspect=fixed;pointerEvents=1;shape=mxgraph.aws4.peering;" vertex="1" parent="1">
          <mxGeometry x="430" y="890" width="78" height="78" as="geometry" />
        </mxCell>
        <mxCell id="VpSIu1IdcWAd6uE_X6uR-39" style="edgeStyle=orthogonalEdgeStyle;rounded=0;orthogonalLoop=1;jettySize=auto;html=1;endArrow=none;endFill=0;" edge="1" parent="1" source="VpSIu1IdcWAd6uE_X6uR-25" target="VpSIu1IdcWAd6uE_X6uR-28">
          <mxGeometry relative="1" as="geometry" />
        </mxCell>
        <mxCell id="VpSIu1IdcWAd6uE_X6uR-25" value="VPC Peering" style="sketch=0;outlineConnect=0;fontColor=#232F3E;gradientColor=none;fillColor=#8C4FFF;strokeColor=none;dashed=0;verticalLabelPosition=bottom;verticalAlign=top;align=center;html=1;fontSize=12;fontStyle=0;aspect=fixed;pointerEvents=1;shape=mxgraph.aws4.peering;" vertex="1" parent="1">
          <mxGeometry x="550" y="890" width="78" height="78" as="geometry" />
        </mxCell>
        <mxCell id="VpSIu1IdcWAd6uE_X6uR-44" style="edgeStyle=orthogonalEdgeStyle;rounded=0;orthogonalLoop=1;jettySize=auto;html=1;endArrow=none;endFill=0;" edge="1" parent="1" source="VpSIu1IdcWAd6uE_X6uR-26" target="VpSIu1IdcWAd6uE_X6uR-27">
          <mxGeometry relative="1" as="geometry" />
        </mxCell>
        <mxCell id="VpSIu1IdcWAd6uE_X6uR-26" value="Amazon VPC" style="sketch=0;points=[[0,0,0],[0.25,0,0],[0.5,0,0],[0.75,0,0],[1,0,0],[0,1,0],[0.25,1,0],[0.5,1,0],[0.75,1,0],[1,1,0],[0,0.25,0],[0,0.5,0],[0,0.75,0],[1,0.25,0],[1,0.5,0],[1,0.75,0]];outlineConnect=0;fontColor=#232F3E;fillColor=#8C4FFF;strokeColor=#ffffff;dashed=0;verticalLabelPosition=bottom;verticalAlign=top;align=center;html=1;fontSize=12;fontStyle=0;aspect=fixed;shape=mxgraph.aws4.resourceIcon;resIcon=mxgraph.aws4.vpc;" vertex="1" parent="1">
          <mxGeometry x="310" y="1030" width="78" height="78" as="geometry" />
        </mxCell>
        <mxCell id="VpSIu1IdcWAd6uE_X6uR-43" style="edgeStyle=orthogonalEdgeStyle;rounded=0;orthogonalLoop=1;jettySize=auto;html=1;endArrow=none;endFill=0;" edge="1" parent="1" source="VpSIu1IdcWAd6uE_X6uR-27" target="VpSIu1IdcWAd6uE_X6uR-28">
          <mxGeometry relative="1" as="geometry" />
        </mxCell>
        <mxCell id="VpSIu1IdcWAd6uE_X6uR-27" value="VPC Peering" style="sketch=0;outlineConnect=0;fontColor=#232F3E;gradientColor=none;fillColor=#8C4FFF;strokeColor=none;dashed=0;verticalLabelPosition=bottom;verticalAlign=top;align=center;html=1;fontSize=12;fontStyle=0;aspect=fixed;pointerEvents=1;shape=mxgraph.aws4.peering;" vertex="1" parent="1">
          <mxGeometry x="430" y="1030" width="78" height="78" as="geometry" />
        </mxCell>
        <mxCell id="VpSIu1IdcWAd6uE_X6uR-28" value="Amazon VPC" style="sketch=0;points=[[0,0,0],[0.25,0,0],[0.5,0,0],[0.75,0,0],[1,0,0],[0,1,0],[0.25,1,0],[0.5,1,0],[0.75,1,0],[1,1,0],[0,0.25,0],[0,0.5,0],[0,0.75,0],[1,0.25,0],[1,0.5,0],[1,0.75,0]];outlineConnect=0;fontColor=#232F3E;fillColor=#8C4FFF;strokeColor=#ffffff;dashed=0;verticalLabelPosition=middle;verticalAlign=middle;align=left;html=1;fontSize=12;fontStyle=0;aspect=fixed;shape=mxgraph.aws4.resourceIcon;resIcon=mxgraph.aws4.vpc;labelPosition=right;spacingLeft=5;" vertex="1" parent="1">
          <mxGeometry x="550" y="1030" width="78" height="78" as="geometry" />
        </mxCell>
        <mxCell id="VpSIu1IdcWAd6uE_X6uR-29" value="VPN Connection" style="sketch=0;outlineConnect=0;fontColor=#232F3E;gradientColor=none;fillColor=#8C4FFF;strokeColor=none;dashed=0;verticalLabelPosition=middle;verticalAlign=middle;align=right;html=1;fontSize=12;fontStyle=0;aspect=fixed;pointerEvents=1;shape=mxgraph.aws4.vpn_connection;labelPosition=left;spacingRight=5;" vertex="1" parent="1">
          <mxGeometry x="170" y="890" width="70" height="78" as="geometry" />
        </mxCell>
        <mxCell id="VpSIu1IdcWAd6uE_X6uR-30" value="VPN Connection" style="sketch=0;outlineConnect=0;fontColor=#232F3E;gradientColor=none;fillColor=#8C4FFF;strokeColor=none;dashed=0;verticalLabelPosition=middle;verticalAlign=middle;align=left;html=1;fontSize=12;fontStyle=0;aspect=fixed;pointerEvents=1;shape=mxgraph.aws4.vpn_connection;labelPosition=right;spacingRight=0;spacingLeft=5;" vertex="1" parent="1">
          <mxGeometry x="24" y="1010" width="70" height="78" as="geometry" />
        </mxCell>
        <mxCell id="VpSIu1IdcWAd6uE_X6uR-32" value="AWS Direct&lt;div&gt;Connect Gateway&lt;/div&gt;" style="sketch=0;outlineConnect=0;fontColor=#232F3E;gradientColor=none;fillColor=#8C4FFF;strokeColor=none;dashed=0;verticalLabelPosition=middle;verticalAlign=middle;align=left;html=1;fontSize=12;fontStyle=0;aspect=fixed;pointerEvents=1;shape=mxgraph.aws4.gateway;labelPosition=right;spacingLeft=5;" vertex="1" parent="1">
          <mxGeometry x="645" y="890" width="76" height="78" as="geometry" />
        </mxCell>
        <mxCell id="VpSIu1IdcWAd6uE_X6uR-42" style="edgeStyle=orthogonalEdgeStyle;rounded=0;orthogonalLoop=1;jettySize=auto;html=1;entryX=0.25;entryY=0;entryDx=0;entryDy=0;entryPerimeter=0;endArrow=none;endFill=0;" edge="1" parent="1" source="VpSIu1IdcWAd6uE_X6uR-24" target="VpSIu1IdcWAd6uE_X6uR-28">
          <mxGeometry relative="1" as="geometry">
            <Array as="points">
              <mxPoint x="469" y="1000" />
              <mxPoint x="570" y="1000" />
            </Array>
          </mxGeometry>
        </mxCell>
        <mxCell id="VpSIu1IdcWAd6uE_X6uR-51" style="edgeStyle=orthogonalEdgeStyle;rounded=0;orthogonalLoop=1;jettySize=auto;html=1;entryX=0.25;entryY=0;entryDx=0;entryDy=0;entryPerimeter=0;endArrow=none;endFill=0;" edge="1" parent="1" source="VpSIu1IdcWAd6uE_X6uR-29" target="VpSIu1IdcWAd6uE_X6uR-26">
          <mxGeometry relative="1" as="geometry">
            <Array as="points">
              <mxPoint x="205" y="1000" />
              <mxPoint x="330" y="1000" />
            </Array>
          </mxGeometry>
        </mxCell>
        <mxCell id="VpSIu1IdcWAd6uE_X6uR-52" style="edgeStyle=orthogonalEdgeStyle;rounded=0;orthogonalLoop=1;jettySize=auto;html=1;entryX=0.5;entryY=1;entryDx=0;entryDy=0;entryPerimeter=0;endArrow=none;endFill=0;" edge="1" parent="1" source="VpSIu1IdcWAd6uE_X6uR-30" target="VpSIu1IdcWAd6uE_X6uR-28">
          <mxGeometry relative="1" as="geometry">
            <Array as="points">
              <mxPoint x="59" y="1140" />
              <mxPoint x="589" y="1140" />
            </Array>
          </mxGeometry>
        </mxCell>
      </root>
    </mxGraphModel>
  </diagram>
</mxfile>
